<?xml version="1.0" encoding="UTF-8" standalone="no"?>
<svg width="124px" height="34px" viewBox="0 0 124 34" version="1.1" xmlns="http://www.w3.org/2000/svg" xmlns:xlink="http://www.w3.org/1999/xlink" xmlns:sketch="http://www.bohemiancoding.com/sketch/ns">
    <!-- Generator: Sketch 3.3.3 (12072) - http://www.bohemiancoding.com/sketch -->
    <title>Logo</title>
    <desc>Created with Sketch.</desc>
    <defs></defs>
    <g id="Start-an-Online-Visit" stroke="none" stroke-width="1" fill="none" fill-rule="evenodd" sketch:type="MSPage">
        <g id="Start-Visit-Desktop" sketch:type="MSArtboardGroup" transform="translate(-450.000000, -7.000000)">
            <g id="Logo-Header" sketch:type="MSLayerGroup" transform="translate(0.000000, -2.850000)">
                <g id="Logo" transform="translate(450.500000, 10.000000)" sketch:type="MSShapeGroup">
                    <path d="M23.0153374,8.875 L23.0153374,6.3755 C23.0153374,2.819 20.0389387,0 16.6539233,0 C12.9854294,0 10.1871166,2.8935 10.1871166,6.45 C10.1871166,12.114625 12.7338957,14.614625 15.2409325,17.28125 C16.9472117,19.096125 20.0073712,21.4375 19.9969325,26.616875 C19.9932853,28.40625 18.5348926,30.00525 16.601227,30.00525 C14.7558497,30.00525 13.2055215,28.55725 13.2055215,26.4755 L13.2055215,24.125 L10.1871166,24.125 L10.1871166,26.5 C10.1871166,30.0365 12.9121074,33 16.601227,33 C20.1279816,33 23.0153374,30.15625 23.0153374,26.5625 C23.0153374,20.840625 20.0362975,17.887375 17.5916411,15.390625 C15.2084847,12.9565 13.1898006,10.7775 13.1898006,6.45 C13.1898006,4.547625 14.7558497,2.984375 16.601227,2.984375 C18.4466043,2.984375 19.9969325,4.473125 19.9969325,6.3755 L19.9969325,8.875 L23.0153374,8.875" id="Fill-1" fill="#00CECF"></path>
                    <path d="M15.9822025,19.875 L6.51925153,19.875 C4.48044479,19.875 3.01324847,18.334125 3.01324847,16.5 C3.01324847,14.734375 4.37857362,13.125 6.55044172,13.125 L10.4333681,13.125 C9.98664417,12.25775 9.59010123,11.25 9.32661963,10.125 L6.58930368,10.125 C2.87515644,10.125 0,12.921875 0,16.5 C0,19.98825 2.74071166,22.875 6.58930368,22.875 L18.0259141,22.875 C17.4305337,21.484375 16.4476656,20.399625 15.9822025,19.875" id="Fill-2" fill="#0BA5C5"></path>
                    <path d="M26.7883436,10.125 L15.1313896,10.125 C15.485046,10.9765 16.0365337,11.862125 17.1710767,13.125 L26.6921319,13.125 C28.5864325,13.125 30.1840491,14.539 30.1840491,16.5 C30.1840491,18.375 28.651454,19.875 26.7360245,19.875 L22.7219233,19.875 C23.1877638,20.75 23.5661963,21.75 23.8433865,22.875 L26.7883436,22.875 C30.0013098,22.875 33.202454,20.32025 33.202454,16.5 C33.202454,12.770875 30.0819264,10.125 26.7883436,10.125" id="Fill-3" fill="#0BA5C5"></path>
                    <path d="M42.1134141,24.989875 C39.840681,24.989875 37.4785276,23.652625 37.4785276,22.404375 C37.4785276,21.7505 37.956819,21.215625 38.6745706,21.215625 C39.7810675,21.215625 40.4090215,22.52325 42.4122362,22.52325 C43.937411,22.52325 44.565365,21.720875 44.565365,20.948125 C44.565365,20.205125 43.9073528,19.343375 42.2628252,18.54075 L40.4388282,17.649375 C38.3456902,16.63875 37.5981319,15.212125 37.5981319,13.66675 C37.5981319,11.616125 39.5118006,9.714 42.3824294,9.714 C44.2662914,9.714 45.8210215,10.605625 46.3595552,11.200125 C46.7480491,11.616125 46.8080399,11.943125 46.8080399,12.24025 C46.8080399,12.71575 46.3294969,13.2805 45.5819387,13.2805 C44.4458865,13.2805 44.0570153,12.210625 42.2628252,12.210625 C40.8873129,12.210625 40.3193497,12.953625 40.3193497,13.637125 C40.3193497,14.40975 40.7380276,15.00425 42.2029601,15.74725 L44.3858957,16.8765 C46.5685798,18.005875 47.166727,19.462125 47.166727,20.948125 C47.166727,23.028375 45.4623344,24.989875 42.1134141,24.989875" id="Fill-4" fill="#1E333A"></path>
                    <path d="M51.9586963,11.5865 C53.3042761,10.368 55.1283988,9.625 57.1019325,9.625 C61.4076871,9.625 64.8464049,13.042625 64.8464049,17.32225 C64.8464049,21.5425 61.4076871,24.96025 57.1019325,24.96025 C55.1283988,24.96025 53.3042761,24.21725 51.9586963,22.99875 L51.9586963,29.56675 C51.9586963,30.22075 51.3608006,30.78525 50.6729816,30.78525 C50.0450276,30.78525 49.4170736,30.22075 49.4170736,29.56675 L49.4170736,10.962375 C49.4170736,10.3085 50.0450276,9.743875 50.6729816,9.743875 C51.3608006,9.743875 51.9586963,10.3085 51.9586963,10.962375 L51.9586963,11.5865 L51.9586963,11.5865 Z M57.1019325,12.18075 C54.2314294,12.18075 51.9586963,14.4395 51.9586963,17.32225 C51.9586963,20.175375 54.2314294,22.434125 57.1019325,22.434125 C60.0023681,22.434125 62.2748497,20.175375 62.2748497,17.32225 C62.2748497,14.4395 60.0023681,12.18075 57.1019325,12.18075 L57.1019325,12.18075 Z" id="Fill-5" fill="#1E333A"></path>
                    <path d="M72.7824202,12.284625 C71.1017975,12.45675 69.6899387,13.6475 69.6899387,15.806625 L69.6899387,23.652625 C69.6899387,24.3065 69.0619847,24.871 68.4340307,24.871 C67.7460859,24.871 67.148316,24.3065 67.148316,23.652625 L67.148316,10.992125 C67.148316,10.33825 67.7460859,9.7735 68.4340307,9.7735 C69.0917914,9.7735 69.6899387,10.3085 69.6899387,11.081125 C70.5758405,10.300625 71.3373589,9.956875 72.1776074,9.819125 C72.5527699,9.7575 72.9435276,9.737125 73.3681166,9.737125 C73.8650215,9.737125 74.4734816,9.83775 74.8073926,9.9685 C75.332092,10.17375 75.6907791,10.601125 75.6067669,11.322625 C75.5347025,11.94175 74.9058681,12.507 74.2238344,12.389625 C74.2238344,12.389625 73.2534172,12.2365 72.7824202,12.284625" id="Fill-6" fill="#1E333A"></path>
                    <path d="M89.2315951,9.75 C88.7678926,9.75 87.9110429,10.054625 87.9110429,11.0625 L87.9110429,18.809875 C87.9110429,20.997375 86.3075153,22.5 84.2009202,22.5 C82.0943252,22.5 80.4907975,20.997375 80.4907975,18.809875 L80.4907975,11.0625 C80.4907975,10.4375 80.0348926,9.737125 79.2094847,9.737125 C78.3133957,9.737125 77.8496933,10.398375 77.8496933,11.0625 L77.8496933,18.53125 C77.8496933,23.640625 81.7013037,25.118375 84.2009202,25.118375 C86.7005368,25.118375 90.5521472,23.640625 90.5521472,18.53125 L90.5521472,11.0625 C90.5521472,10.054625 89.6954233,9.75 89.2315951,9.75" id="Fill-7" fill="#1E333A"></path>
                    <path d="M105.093564,20.591375 C104.705071,20.591375 104.482086,20.77775 104.077117,21.09675 C103.090098,21.874375 101.941469,22.424875 100.609221,22.433375 C97.7241288,22.416625 95.4683742,20.164625 95.4683742,17.292625 C95.4683742,14.45 97.7243804,12.198 100.609598,12.1815 C101.941972,12.18975 103.108209,12.7185 104.077117,13.518125 C104.407632,13.791 104.705071,14.023375 105.093564,14.023375 C105.781509,14.023375 106.379405,13.429125 106.379405,12.7455 C106.379405,12.388875 106.200187,12.03225 105.93092,11.7945 C105.316926,11.184375 103.553298,9.654625 100.641166,9.654625 C96.335411,9.654625 92.8465123,13.072375 92.8465123,17.292625 C92.8465123,22.0625 96.6440429,24.99075 100.393405,24.99075 C102.460635,24.99075 103.77339,24.398375 104.741417,23.79075 C105.133936,23.54425 105.585439,23.186375 105.953684,22.820375 C106.223077,22.582625 106.39085,22.226 106.39085,21.869375 C106.39085,21.18575 105.781509,20.591375 105.093564,20.591375" id="Fill-8" fill="#1E333A"></path>
                    <path d="M115.789408,22.645875 C113.378834,22.645875 111.094153,21.145875 110.831552,18.5 L121.474196,18.5 C122.428264,18.5 123,17.796625 123,17.053625 C123,13.159875 120.041334,9.760125 115.914798,9.760125 C111.608791,9.760125 108.111215,13.17025 108.111215,17.3905 C108.111215,21.649625 111.484534,25.08625 115.705521,25.08625 C118.307387,25.08625 120.114153,24.00975 121.21235,22.91825 C121.481617,22.6805 121.672531,22.323875 121.672531,21.96725 C121.672531,21.283625 121.080546,20.68925 120.392601,20.68925 C120.004107,20.68925 119.542166,21.07225 119.379046,21.194625 C118.952193,21.55975 117.607745,22.645875 115.789408,22.645875 L115.789408,22.645875 Z M110.891291,16 C111.399641,13.75 113.245018,12.237125 115.75696,12.237125 C118.238718,12.237125 120.09139,14 120.496107,16 L110.891291,16 L110.891291,16 Z" id="Fill-9" fill="#1E333A"></path>
                </g>
            </g>
        </g>
    </g>
</svg>