<?xml version="1.0" encoding="UTF-8" standalone="no"?>
<svg width="76px" height="21px" viewBox="0 0 76 21" version="1.1" xmlns="http://www.w3.org/2000/svg" xmlns:xlink="http://www.w3.org/1999/xlink" xmlns:sketch="http://www.bohemiancoding.com/sketch/ns">
    <!-- Generator: Sketch 3.3.3 (12072) - http://www.bohemiancoding.com/sketch -->
    <title>Logo Copy 2</title>
    <desc>Created with Sketch.</desc>
    <defs></defs>
    <g id="Spruce-Profile" stroke="none" stroke-width="1" fill="none" fill-rule="evenodd" sketch:type="MSPage">
        <g id="Spruce-Profile-Desktop" sketch:type="MSArtboardGroup" transform="translate(-630.000000, -527.000000)">
            <g id="Group-Copy-24-+-Logo-Copy-2" sketch:type="MSLayerGroup" transform="translate(525.000000, 527.000000)">
                <g id="Logo-Copy-2" transform="translate(105.545455, 0.458125)" sketch:type="MSShapeGroup">
                    <path d="M13.9486893,5.37878788 L13.9486893,3.86393939 C13.9486893,1.70848485 12.1448113,0 10.0932869,0 C7.86995724,0 6.17401004,1.75363636 6.17401004,3.90909091 C6.17401004,7.34219697 7.71751255,8.85734848 9.2369288,10.4734848 C10.2710374,11.5734091 12.1256795,12.9924242 12.119353,16.1314394 C12.1171426,17.2159091 11.2332683,18.185 10.0613497,18.185 C8.94293921,18.185 8.00334635,17.3074242 8.00334635,16.0457576 L8.00334635,14.6212121 L6.17401004,14.6212121 L6.17401004,16.0606061 C6.17401004,18.2039394 7.82551961,20 10.0613497,20 C12.1987767,20 13.9486893,18.2765152 13.9486893,16.0984848 C13.9486893,12.6306818 12.1432106,10.8408333 10.6616007,9.32765152 C9.21726343,7.85242424 7.99381855,6.53181818 7.99381855,3.90909091 C7.99381855,2.75613636 8.94293921,1.80871212 10.0613497,1.80871212 C11.1797602,1.80871212 12.119353,2.71098485 12.119353,3.86393939 L12.119353,5.37878788 L13.9486893,5.37878788" id="Fill-1" fill="#00CECF"></path>
                    <path d="M9.68618331,12.0454545 L3.95106154,12.0454545 C2.71542108,12.0454545 1.82621119,11.1115909 1.82621119,10 C1.82621119,8.92992424 2.65368098,7.95454545 3.96996468,7.95454545 L6.32325339,7.95454545 C6.05251162,7.42893939 5.81218256,6.81818182 5.65249675,6.13636364 L3.99351738,6.13636364 C1.74251906,6.13636364 0,7.83143939 0,10 C0,12.1140909 1.66103737,13.8636364 3.99351738,13.8636364 L10.9247964,13.8636364 C10.5639598,13.0208333 9.96828221,12.3634091 9.68618331,12.0454545" id="Fill-2" fill="#0BA5C5"></path>
                    <path d="M16.2353597,6.13636364 L9.17053913,6.13636364 C9.38487637,6.65242424 9.71911136,7.18916667 10.4067131,7.95454545 L16.1770496,7.95454545 C17.3251106,7.95454545 18.2933631,8.81151515 18.2933631,10 C18.2933631,11.1363636 17.3645176,12.0454545 16.2036512,12.0454545 L13.7708626,12.0454545 C14.0531902,12.5757576 14.2825432,13.1818182 14.4505373,13.8636364 L16.2353597,13.8636364 C18.182612,13.8636364 20.1226994,12.315303 20.1226994,10 C20.1226994,7.73992424 18.2314705,6.13636364 16.2353597,6.13636364" id="Fill-3" fill="#0BA5C5"></path>
                    <path d="M25.5232813,15.1453788 C24.1458673,15.1453788 22.7142592,14.3349242 22.7142592,13.5784091 C22.7142592,13.1821212 23.0041327,12.8579545 23.4391337,12.8579545 C24.1097379,12.8579545 24.490316,13.6504545 25.7043856,13.6504545 C26.628734,13.6504545 27.0093121,13.1641667 27.0093121,12.6958333 C27.0093121,12.2455303 26.6105168,11.7232576 25.6138334,11.2368182 L24.5083807,10.6965909 C23.2398122,10.0840909 22.7867466,9.2194697 22.7867466,8.28287879 C22.7867466,7.04007576 23.9465458,5.88727273 25.6863209,5.88727273 C26.8280554,5.88727273 27.770316,6.42765152 28.0967001,6.78795455 C28.332151,7.04007576 28.368509,7.23825758 28.368509,7.41833333 C28.368509,7.70651515 28.078483,8.04878788 27.6254174,8.04878788 C26.9369009,8.04878788 26.7012214,7.40037879 25.6138334,7.40037879 C24.7801896,7.40037879 24.4359695,7.85068182 24.4359695,8.26492424 C24.4359695,8.73318182 24.6897137,9.09348485 25.5775516,9.54378788 L26.9005429,10.2281818 C28.2233817,10.9126515 28.5858951,11.7952273 28.5858951,12.6958333 C28.5858951,13.9565909 27.5529299,15.1453788 25.5232813,15.1453788" id="Fill-4" fill="#1E333A"></path>
                    <path d="M31.490119,7.02212121 C32.3056219,6.28363636 33.4111508,5.83333333 34.6072318,5.83333333 C37.2167801,5.83333333 39.3008515,7.90462121 39.3008515,10.4983333 C39.3008515,13.0560606 37.2167801,15.1274242 34.6072318,15.1274242 C33.4111508,15.1274242 32.3056219,14.6771212 31.490119,13.9386364 L31.490119,17.9192424 C31.490119,18.3156061 31.1277579,18.6577273 30.7108979,18.6577273 C30.3303198,18.6577273 29.9497416,18.3156061 29.9497416,17.9192424 L29.9497416,6.64386364 C29.9497416,6.24757576 30.3303198,5.90537879 30.7108979,5.90537879 C31.1277579,5.90537879 31.490119,6.24757576 31.490119,6.64386364 L31.490119,7.02212121 L31.490119,7.02212121 Z M34.6072318,7.38227273 C32.867533,7.38227273 31.490119,8.75121212 31.490119,10.4983333 C31.490119,12.2275 32.867533,13.5964394 34.6072318,13.5964394 C36.3650716,13.5964394 37.7423331,12.2275 37.7423331,10.4983333 C37.7423331,8.75121212 36.3650716,7.38227273 34.6072318,7.38227273 L34.6072318,7.38227273 Z" id="Fill-5" fill="#1E333A"></path>
                    <path d="M44.1105577,7.44522727 C43.0919985,7.54954545 42.2363265,8.27121212 42.2363265,9.57977273 L42.2363265,14.3349242 C42.2363265,14.7312121 41.8557483,15.0733333 41.4751701,15.0733333 C41.0582339,15.0733333 40.6959491,14.7312121 40.6959491,14.3349242 L40.6959491,6.66189394 C40.6959491,6.26560606 41.0582339,5.92333333 41.4751701,5.92333333 C41.873813,5.92333333 42.2363265,6.24757576 42.2363265,6.71583333 C42.7732367,6.24280303 43.234763,6.0344697 43.7440045,5.95098485 C43.9713757,5.91363636 44.2081985,5.90128788 44.4655252,5.90128788 C44.7666797,5.90128788 45.1354434,5.96227273 45.3378137,6.04151515 C45.6558133,6.16590909 45.8731995,6.42492424 45.822283,6.86219697 C45.7786075,7.23742424 45.3974958,7.58 44.984142,7.50886364 C44.984142,7.50886364 44.3960104,7.41606061 44.1105577,7.44522727" id="Fill-6" fill="#1E333A"></path>
                    <path d="M54.0797546,5.90909091 C53.7987228,5.90909091 53.27942,6.09371212 53.27942,6.70454545 L53.27942,11.3999242 C53.27942,12.7256818 52.3075851,13.6363636 51.0308608,13.6363636 C49.7541365,13.6363636 48.7823015,12.7256818 48.7823015,11.3999242 L48.7823015,6.70454545 C48.7823015,6.32575758 48.5059955,5.90128788 48.0057483,5.90128788 C47.4626641,5.90128788 47.1816323,6.30204545 47.1816323,6.70454545 L47.1816323,11.2310606 C47.1816323,14.3276515 49.5159416,15.2232576 51.0308608,15.2232576 C52.5457799,15.2232576 54.8800892,14.3276515 54.8800892,11.2310606 L54.8800892,6.70454545 C54.8800892,6.09371212 54.3608626,5.90909091 54.0797546,5.90909091" id="Fill-7" fill="#1E333A"></path>
                    <path d="M63.6930693,12.4796212 C63.4576185,12.4796212 63.3224763,12.5925758 63.0770403,12.7859091 C62.4788474,13.257197 61.7827087,13.5908333 60.9752854,13.5959848 C59.2267447,13.5858333 57.8596207,12.2209848 57.8596207,10.4803788 C57.8596207,8.75757576 59.2268972,7.39272727 60.975514,7.38272727 C61.7830136,7.38772727 62.4898234,7.70818182 63.0770403,8.19280303 C63.2773527,8.35818182 63.4576185,8.49901515 63.6930693,8.49901515 C64.1100056,8.49901515 64.4723666,8.13886364 64.4723666,7.72454545 C64.4723666,7.50840909 64.3637498,7.29227273 64.2005577,7.14818182 C63.8284402,6.77840909 62.7595743,5.85128788 60.9946458,5.85128788 C58.3850976,5.85128788 56.2706135,7.92265152 56.2706135,10.4803788 C56.2706135,13.3712121 58.5721472,15.1459091 60.8444878,15.1459091 C62.0973545,15.1459091 62.8929634,14.7868939 63.4796468,14.4186364 C63.7175367,14.2692424 63.9911749,14.0523485 64.214354,13.8305303 C64.3776222,13.6864394 64.4793028,13.470303 64.4793028,13.2541667 C64.4793028,12.8398485 64.1100056,12.4796212 63.6930693,12.4796212" id="Fill-8" fill="#1E333A"></path>
                    <path d="M70.1753988,13.7247727 C68.7144451,13.7247727 67.3297899,12.8156818 67.1706377,11.2121212 L73.620725,11.2121212 C74.1989478,11.2121212 74.5454545,10.7858333 74.5454545,10.3355303 C74.5454545,7.97568182 72.7523239,5.91522727 70.2513925,5.91522727 C67.6416918,5.91522727 65.5219483,7.9819697 65.5219483,10.539697 C65.5219483,13.1209848 67.5663841,15.2037879 70.1245585,15.2037879 C71.7014464,15.2037879 72.7964566,14.5513636 73.4620301,13.8898485 C73.6252222,13.7457576 73.7409277,13.5296212 73.7409277,13.3134848 C73.7409277,12.8991667 73.3821491,12.5389394 72.9652129,12.5389394 C72.729762,12.5389394 72.4497974,12.7710606 72.350937,12.8452273 C72.0922383,13.0665152 71.2774215,13.7247727 70.1753988,13.7247727 L70.1753988,13.7247727 Z M67.2068433,9.6969697 C67.514934,8.33333333 68.6333445,7.41643939 70.1557334,7.41643939 C71.659829,7.41643939 72.7826603,8.48484848 73.0279439,9.6969697 L67.2068433,9.6969697 L67.2068433,9.6969697 Z" id="Fill-9" fill="#1E333A"></path>
                </g>
            </g>
        </g>
    </g>
</svg>