<?xml version="1.0" encoding="UTF-8" standalone="no"?>
<svg width="97px" height="17px" viewBox="0 0 97 17" version="1.1" xmlns="http://www.w3.org/2000/svg" xmlns:xlink="http://www.w3.org/1999/xlink" xmlns:sketch="http://www.bohemiancoding.com/sketch/ns">
    <!-- Generator: Sketch 3.3.3 (12072) - http://www.bohemiancoding.com/sketch -->
    <title>Five</title>
    <desc>Created with Sketch.</desc>
    <defs></defs>
    <g id="Page-1" stroke="none" stroke-width="1" fill="none" fill-rule="evenodd" sketch:type="MSPage">
        <g id="Five" sketch:type="MSLayerGroup" fill="#FFB311">
            <polygon id="Star-1" sketch:type="MSShapeGroup" points="9 13.5 3.70993273 16.2811529 4.72024568 10.3905765 0.440491353 6.21884705 6.35496636 5.35942353 9 0 11.6450336 5.35942353 17.5595086 6.21884705 13.2797543 10.3905765 14.2900673 16.2811529 "></polygon>
            <polygon id="Star-1-Copy" sketch:type="MSShapeGroup" points="29.0454545 13.5 23.7553873 16.2811529 24.7657002 10.3905765 20.4859459 6.21884705 26.4004209 5.35942353 29.0454545 0 31.6904882 5.35942353 37.6049632 6.21884705 33.3252089 10.3905765 34.3355218 16.2811529 "></polygon>
            <polygon id="Star-1-Copy-2" sketch:type="MSShapeGroup" points="49.5 13.5 44.2099327 16.2811529 45.2202457 10.3905765 40.9404914 6.21884705 46.8549664 5.35942353 49.5 0 52.1450336 5.35942353 58.0595086 6.21884705 53.7797543 10.3905765 54.7900673 16.2811529 "></polygon>
            <polygon id="Star-1-Copy-3" sketch:type="MSShapeGroup" points="69.5454545 13.5 64.2553873 16.2811529 65.2657002 10.3905765 60.9859459 6.21884705 66.9004209 5.35942353 69.5454545 0 72.1904882 5.35942353 78.1049632 6.21884705 73.8252089 10.3905765 74.8355218 16.2811529 "></polygon>
            <polygon id="Star-1-Copy-4" sketch:type="MSShapeGroup" points="88.3636364 13.5 83.0735691 16.2811529 84.083882 10.3905765 79.8041277 6.21884705 85.7186027 5.35942353 88.3636364 0 91.00867 5.35942353 96.923145 6.21884705 92.6433907 10.3905765 93.6537036 16.2811529 "></polygon>
        </g>
    </g>
</svg>